<svg width="59" height="20" viewBox="0 0 59 20" fill="none" xmlns="http://www.w3.org/2000/svg">
<g clip-path="url(#clip0_2_8)">
<path d="M14.5853 15.617C13.9482 16.2618 13.3149 16.9088 12.6749 17.5491C11.9027 18.3215 11.118 19.0816 10.3547 19.8628C10.1738 20.0482 10.0864 20.0433 9.90567 19.863C7.42219 17.3871 4.93017 14.9202 2.44025 12.4508C2.04017 12.0542 1.6496 11.6473 1.23636 11.2649C1.06019 11.1019 1.08949 11.0205 1.25375 10.8775C3.05031 9.31107 5.10893 8.25328 7.44928 7.81872C11.7517 7.01952 15.6003 8.02553 18.9632 10.8483C19.172 11.0234 19.1818 11.1137 18.9781 11.3055C17.4892 12.7085 15.913 13.9802 13.971 14.7145C12.1179 15.4153 10.2619 15.3849 8.41658 14.6937C7.67089 14.4145 7.03777 13.9625 6.58303 13.293C5.89305 12.2773 5.99112 11.0197 6.84085 10.1296C7.59808 9.33653 8.56807 8.97593 9.62778 8.83386C10.4103 8.72906 11.1879 8.77036 11.941 9.03539C12.3816 9.19042 12.7724 9.42471 13.071 9.79299C13.627 10.4794 13.5566 11.3847 12.8687 11.9403C12.0306 12.6172 11.066 12.8148 10.0169 12.5807C9.6735 12.5039 9.37956 12.334 9.14374 12.0624C8.92223 11.8074 8.63194 11.7699 8.41745 11.9476C8.18931 12.1367 8.18585 12.4363 8.41918 12.7082C8.84452 13.2032 9.40972 13.4462 10.0345 13.5522C11.3084 13.7685 12.5148 13.5772 13.5865 12.8308C15.0137 11.8368 15.0421 10.1624 13.6613 9.10071C12.7659 8.41236 11.7141 8.20381 10.6143 8.18422C9.10436 8.15732 7.69192 8.49669 6.45854 9.39944C4.46121 10.8611 4.43143 13.2982 6.38054 14.8258C7.36696 15.5993 8.5137 15.9699 9.73853 16.1394C11.3405 16.3609 12.8996 16.186 14.4184 15.6359C14.4705 15.6172 14.5195 15.5783 14.5853 15.617Z" fill="white"/>
<path d="M0.386825 10.3806C0.226696 10.3081 0.121897 10.1816 0.028625 10.058C-0.0616694 9.93804 0.0845306 9.8782 0.14937 9.81374C2.92967 7.05218 5.71188 4.29215 8.49535 1.53356C8.96853 1.06442 9.46121 0.613905 9.91826 0.12987C10.1146 -0.078095 10.2073 -0.0105663 10.3709 0.15302C12.2318 2.01424 14.0982 3.86998 15.9662 5.72408C17.3283 7.0759 18.6955 8.42254 20.0581 9.77398C20.1606 9.87541 20.3528 9.96369 20.1412 10.1509C19.9897 10.2852 19.9038 10.4509 19.6462 10.2486C17.5815 8.62714 15.2376 7.61335 12.6525 7.19694C9.61106 6.70704 6.66238 7.07466 3.83098 8.30957C2.66704 8.81714 1.58745 9.4663 0.584608 10.2444C0.522074 10.293 0.454161 10.3345 0.386825 10.3806Z" fill="white"/>
<path d="M27.4818 7.6706C27.4818 7.74533 27.4785 7.80758 27.472 7.85772C27.4656 7.90805 27.456 7.94859 27.443 7.97952C27.4301 8.01045 27.4141 8.03283 27.3947 8.04695C27.3755 8.06117 27.3544 8.06828 27.331 8.06828H24.822C24.7372 8.06828 24.6658 8.04311 24.6079 7.99297C24.55 7.94282 24.5211 7.86118 24.5211 7.74792V3.39372C24.5211 3.28047 24.55 3.19882 24.6079 3.14848C24.6658 3.09844 24.7373 3.07337 24.822 3.07337H27.3157C27.3388 3.07337 27.3594 3.0798 27.3774 3.09277C27.3955 3.10555 27.4108 3.12812 27.4237 3.1602C27.4365 3.19238 27.4463 3.2335 27.4527 3.28383C27.4591 3.33388 27.4623 3.39766 27.4623 3.47489C27.4623 3.54703 27.4591 3.60812 27.4527 3.65817C27.4463 3.70841 27.4365 3.74904 27.4237 3.77997C27.4108 3.8108 27.3955 3.83328 27.3774 3.8475C27.3594 3.86152 27.3388 3.86863 27.3157 3.86863H25.5324V5.08818H27.0415C27.0647 5.08818 27.0859 5.09538 27.1053 5.10941C27.1244 5.12363 27.1406 5.14543 27.1534 5.17511C27.1662 5.2047 27.176 5.24456 27.1824 5.2947C27.1888 5.34504 27.192 5.40613 27.192 5.47808C27.192 5.55281 27.1888 5.61467 27.1824 5.66337C27.176 5.71227 27.1662 5.75155 27.1534 5.78104C27.1405 5.81073 27.1244 5.83196 27.1053 5.84473C27.0859 5.8577 27.0647 5.86413 27.0415 5.86413H25.5324V7.27301H27.331C27.3544 7.27301 27.3755 7.28003 27.3947 7.29415C27.4141 7.30836 27.4301 7.33094 27.443 7.36187C27.456 7.3928 27.4656 7.43314 27.472 7.48348C27.4785 7.53352 27.4818 7.59606 27.4818 7.6706Z" fill="white"/>
<path d="M31.6081 7.93697C31.6081 7.96271 31.6005 7.98519 31.5851 8.0045C31.5697 8.0238 31.5437 8.04004 31.5077 8.05262C31.4717 8.06559 31.422 8.07539 31.3591 8.08173C31.296 8.08816 31.2181 8.09133 31.1255 8.09133C31.0304 8.09133 30.9512 8.08816 30.888 8.08173C30.8251 8.07539 30.7754 8.06559 30.7393 8.05262C30.7032 8.04004 30.6776 8.0238 30.6621 8.0045C30.6468 7.98519 30.639 7.96261 30.639 7.93697V5.9723C30.639 5.80496 30.6268 5.67375 30.6023 5.57865C30.5779 5.48336 30.5425 5.40152 30.4962 5.33342C30.4501 5.26531 30.3902 5.21248 30.3169 5.17521C30.2434 5.13784 30.1579 5.11911 30.06 5.11911C29.9365 5.11911 29.8116 5.16426 29.6857 5.25436C29.5596 5.34446 29.4283 5.47568 29.2921 5.6481V7.93706C29.2921 7.96281 29.2843 7.98528 29.2689 8.00459C29.2533 8.0239 29.227 8.04013 29.1898 8.05272C29.1525 8.06569 29.1029 8.07548 29.0412 8.08182C28.9795 8.08826 28.9009 8.09143 28.8057 8.09143C28.7105 8.09143 28.632 8.08826 28.5703 8.08182C28.5084 8.07548 28.459 8.06569 28.4217 8.05272C28.3844 8.04013 28.358 8.0239 28.3426 8.00459C28.3271 7.98528 28.3194 7.96271 28.3194 7.93706V4.49387C28.3194 4.46813 28.3258 4.44555 28.3388 4.42634C28.3516 4.40694 28.3747 4.39099 28.4082 4.37803C28.4416 4.36525 28.4848 4.35564 28.5376 4.34911C28.5904 4.34258 28.6566 4.33931 28.7364 4.33931C28.8187 4.33931 28.8869 4.34258 28.9409 4.34911C28.9949 4.35564 29.0367 4.36515 29.0663 4.37803C29.0959 4.39099 29.117 4.40694 29.13 4.42634C29.1428 4.44555 29.1492 4.46813 29.1492 4.49387V4.89145C29.3397 4.6856 29.5334 4.53114 29.7302 4.42836C29.9271 4.32548 30.1324 4.2739 30.3458 4.2739C30.58 4.2739 30.7775 4.31251 30.9384 4.38974C31.0991 4.46698 31.2292 4.57187 31.3282 4.70433C31.4272 4.8367 31.4987 4.99193 31.5424 5.16945C31.5862 5.34696 31.6081 5.56069 31.6081 5.81015V7.93697" fill="white"/>
<path d="M35.665 4.73315C35.665 4.85668 35.6509 4.94803 35.6226 5.0073C35.5944 5.06657 35.5594 5.09596 35.5183 5.09596H35.1132C35.1697 5.15782 35.2103 5.22795 35.2348 5.30633C35.2593 5.38481 35.2715 5.46646 35.2715 5.55137C35.2715 5.75213 35.2379 5.93042 35.171 6.08603C35.1042 6.24174 35.0085 6.37295 34.8834 6.47977C34.7585 6.58659 34.6082 6.66766 34.432 6.7228C34.2556 6.77832 34.0594 6.80598 33.8433 6.80598C33.7327 6.80598 33.627 6.79234 33.5268 6.76535C33.4263 6.73836 33.3491 6.70685 33.2952 6.67083C33.2643 6.70445 33.2366 6.74422 33.2122 6.79052C33.1879 6.83682 33.1756 6.8884 33.1756 6.94488C33.1756 7.01962 33.2082 7.08071 33.2737 7.12826C33.3394 7.17581 33.4316 7.20213 33.5497 7.20741L34.3875 7.23815C34.5831 7.24593 34.7575 7.27369 34.9105 7.32124C35.0637 7.36888 35.1923 7.43564 35.2965 7.5219C35.4008 7.60807 35.4807 7.71162 35.5358 7.83265C35.591 7.95368 35.6188 8.09124 35.6188 8.2456C35.6188 8.41553 35.5814 8.57566 35.5068 8.72627C35.4324 8.8767 35.3203 9.00744 35.171 9.11809C35.0217 9.22856 34.8346 9.31617 34.6093 9.38052C34.3843 9.44469 34.1211 9.47706 33.8199 9.47706C33.5266 9.47706 33.2763 9.45372 33.069 9.40752C32.8622 9.36122 32.6922 9.29686 32.5596 9.21444C32.4271 9.13212 32.3306 9.03376 32.2701 8.91916C32.2095 8.80466 32.1795 8.67911 32.1795 8.5429C32.1795 8.45798 32.1904 8.37672 32.2121 8.29949C32.2341 8.22236 32.2661 8.14829 32.3087 8.0776C32.3511 8.0069 32.4033 7.93937 32.4651 7.87491C32.5271 7.81065 32.5978 7.74889 32.6774 7.68962C32.5669 7.63054 32.4811 7.55005 32.4208 7.44832C32.3603 7.34669 32.3302 7.23555 32.3302 7.11452C32.3302 6.96256 32.3648 6.82433 32.4344 6.69946C32.5039 6.57468 32.5938 6.4621 32.7045 6.36181C32.6144 6.27181 32.5424 6.16374 32.4884 6.03762C32.4344 5.91159 32.4073 5.75463 32.4073 5.56674C32.4073 5.36598 32.4426 5.18645 32.5134 5.02824C32.5842 4.87003 32.6828 4.73613 32.8087 4.62682C32.9348 4.5175 33.0855 4.43393 33.2603 4.37582C33.4352 4.31799 33.6283 4.28917 33.8394 4.28917C33.9475 4.28917 34.051 4.29561 34.1499 4.30848C34.2489 4.32135 34.341 4.33922 34.426 4.36246H35.5182C35.562 4.36246 35.5974 4.3908 35.6244 4.44728C35.6515 4.50415 35.665 4.59934 35.665 4.73315ZM34.6459 8.29603C34.6459 8.18019 34.5997 8.09133 34.507 8.02957C34.4143 7.9679 34.2872 7.93447 34.1248 7.92928L33.4338 7.91007C33.3671 7.95887 33.3135 8.00594 33.2736 8.05089C33.234 8.09585 33.2017 8.13898 33.1771 8.18028C33.1526 8.22139 33.1367 8.26135 33.1289 8.29987C33.1213 8.33858 33.1173 8.37835 33.1173 8.41966C33.1173 8.54828 33.1824 8.64607 33.3124 8.71302C33.4424 8.77987 33.6255 8.8133 33.8625 8.8133C34.009 8.8133 34.1326 8.79851 34.233 8.76892C34.3333 8.73943 34.4143 8.70005 34.476 8.65135C34.5378 8.60236 34.5817 8.5477 34.6072 8.48728C34.633 8.42657 34.6459 8.36289 34.6459 8.29603ZM34.4183 5.54772C34.4183 5.36243 34.3668 5.21824 34.264 5.11537C34.1609 5.01239 34.0155 4.961 33.8278 4.961C33.7326 4.961 33.649 4.97704 33.577 5.00913C33.5049 5.04131 33.445 5.08501 33.3975 5.14034C33.3497 5.19567 33.3146 5.26012 33.2914 5.33342C33.2683 5.40671 33.2566 5.48336 33.2566 5.56309C33.2566 5.73811 33.3081 5.87643 33.411 5.97806C33.5138 6.07969 33.6568 6.13041 33.8396 6.13041C33.9372 6.13041 34.022 6.11504 34.0942 6.08411C34.1662 6.05327 34.226 6.01082 34.2735 5.95674C34.3213 5.90275 34.3572 5.84031 34.3816 5.76962C34.406 5.69872 34.4183 5.62486 34.4183 5.54772Z" fill="white"/>
<path d="M39.5985 7.93697C39.5985 7.96271 39.5907 7.98519 39.5753 8.0045C39.56 8.0238 39.534 8.04004 39.4981 8.05262C39.4621 8.06559 39.4123 8.07539 39.3495 8.08173C39.2864 8.08816 39.2084 8.09133 39.1158 8.09133C39.0207 8.09133 38.9414 8.08816 38.8783 8.08173C38.8154 8.07539 38.7658 8.06559 38.7296 8.05262C38.6936 8.04004 38.6678 8.0238 38.6524 8.0045C38.637 7.98519 38.6294 7.96261 38.6294 7.93697V5.9723C38.6294 5.80496 38.6172 5.67375 38.5926 5.57865C38.5682 5.48336 38.5329 5.40152 38.4865 5.33342C38.4401 5.26531 38.3804 5.21248 38.3071 5.17521C38.2337 5.13784 38.1481 5.11911 38.0503 5.11911C37.9267 5.11911 37.8019 5.16426 37.676 5.25436C37.5499 5.34446 37.4184 5.47568 37.2822 5.6481V7.93706C37.2822 7.96281 37.2745 7.98528 37.2591 8.00459C37.2436 8.0239 37.2172 8.04013 37.1799 8.05272C37.1425 8.06569 37.0931 8.07548 37.0312 8.08182C36.9695 8.08826 36.891 8.09143 36.796 8.09143C36.7007 8.09143 36.622 8.08826 36.5604 8.08182C36.4986 8.07548 36.4491 8.06569 36.4118 8.05272C36.3744 8.04013 36.3483 8.0239 36.3327 8.00459C36.3173 7.98528 36.3096 7.96271 36.3096 7.93706V2.86098C36.3096 2.83543 36.3173 2.81209 36.3327 2.79153C36.3483 2.77088 36.3746 2.75349 36.4118 2.73937C36.4491 2.72525 36.4986 2.7144 36.5604 2.70662C36.6222 2.69884 36.7007 2.695 36.796 2.695C36.891 2.695 36.9697 2.69893 37.0312 2.70662C37.0931 2.7144 37.1425 2.72525 37.1799 2.73937C37.2174 2.7534 37.2436 2.77088 37.2591 2.79153C37.2745 2.81209 37.2822 2.83543 37.2822 2.86098V4.76408C37.4494 4.59934 37.6199 4.47648 37.7936 4.39541C37.9672 4.31434 38.1479 4.2738 38.3359 4.2738C38.5701 4.2738 38.7676 4.31242 38.9285 4.38965C39.0892 4.46688 39.2191 4.57245 39.3185 4.70616C39.4173 4.83997 39.4886 4.99635 39.5326 5.17521C39.5764 5.35397 39.5984 5.57087 39.5984 5.82562L39.5985 7.93697Z" fill="white"/>
<path d="M44.0337 6.18074C44.0337 6.4741 43.9951 6.74172 43.9178 6.98359C43.8406 7.22547 43.7236 7.43391 43.5666 7.60903C43.4096 7.78395 43.2129 7.9191 42.976 8.0142C42.7393 8.10939 42.4627 8.15704 42.1462 8.15704C41.84 8.15704 41.5734 8.11448 41.3471 8.02957C41.1208 7.94465 40.9328 7.82122 40.7836 7.65907C40.6343 7.49693 40.5237 7.2977 40.4518 7.06082C40.3797 6.82404 40.3436 6.55383 40.3436 6.25019C40.3436 5.95683 40.3829 5.68845 40.4614 5.44542C40.5398 5.20211 40.6576 4.99366 40.8146 4.81999C40.9716 4.64622 41.1679 4.51193 41.4034 4.41664C41.6386 4.32135 41.9147 4.2738 42.2313 4.2738C42.5403 4.2738 42.8076 4.31568 43.0341 4.39916C43.2606 4.48302 43.4476 4.60588 43.5959 4.76802C43.7438 4.93017 43.854 5.12968 43.926 5.36627C43.9977 5.60296 44.0337 5.87441 44.0337 6.18074ZM43.0339 6.21936C43.0339 6.04943 43.0204 5.89315 42.9934 5.75021C42.9664 5.60747 42.9207 5.48327 42.8564 5.3778C42.7919 5.27232 42.7063 5.18991 42.5995 5.13073C42.4929 5.07147 42.3581 5.04188 42.1962 5.04188C42.052 5.04188 41.926 5.0683 41.8179 5.12103C41.7099 5.17377 41.6211 5.251 41.5517 5.35263C41.4822 5.45426 41.4299 5.57664 41.3953 5.71928C41.3607 5.86212 41.3434 6.02503 41.3434 6.20764C41.3434 6.37737 41.3573 6.53375 41.3856 6.6765C41.414 6.81933 41.4596 6.94373 41.5226 7.04901C41.5857 7.15458 41.6713 7.23632 41.7795 7.29405C41.8875 7.35198 42.0214 7.38098 42.1809 7.38098C42.3275 7.38098 42.4551 7.35457 42.5631 7.30183C42.6713 7.24919 42.76 7.17244 42.8295 7.07216C42.8989 6.97187 42.9503 6.85017 42.9838 6.70733C43.0171 6.56478 43.0339 6.40206 43.0339 6.21936Z" fill="white"/>
<path d="M48.0674 7.93697C48.0674 7.96271 48.061 7.98519 48.048 8.0045C48.0353 8.0238 48.0127 8.04004 47.9805 8.05262C47.9484 8.06559 47.906 8.07539 47.8533 8.08173C47.8006 8.08816 47.7343 8.09133 47.6547 8.09133C47.5695 8.09133 47.5007 8.08816 47.4481 8.08173C47.3952 8.07539 47.3534 8.06559 47.3224 8.05262C47.2918 8.04004 47.2698 8.0238 47.2568 8.0045C47.2438 7.98519 47.2377 7.96261 47.2377 7.93697V7.53938C47.0473 7.74543 46.8536 7.8997 46.6567 8.00267C46.4596 8.10555 46.2557 8.15704 46.0448 8.15704C45.808 8.15704 45.6092 8.11842 45.4484 8.04119C45.2875 7.96406 45.1577 7.85849 45.0585 7.72468C44.9595 7.59097 44.8887 7.43583 44.8462 7.25957C44.8039 7.08321 44.7825 6.86381 44.7825 6.60138V4.49387C44.7825 4.46813 44.7895 4.44555 44.8039 4.42634C44.8179 4.40694 44.8436 4.39099 44.8812 4.37803C44.9185 4.36525 44.9684 4.35564 45.0315 4.34911C45.0944 4.34268 45.1724 4.33931 45.2651 4.33931C45.3602 4.33931 45.4389 4.34258 45.5006 4.34911C45.5623 4.35555 45.6118 4.36515 45.6492 4.37803C45.6867 4.39099 45.7129 4.40694 45.7283 4.42634C45.7437 4.44555 45.7515 4.46813 45.7515 4.49387V6.43933C45.7515 6.61953 45.763 6.75728 45.7862 6.85238C45.8091 6.94757 45.8445 7.02913 45.8923 7.09742C45.9398 7.16572 46.0004 7.21845 46.0737 7.25563C46.1472 7.2929 46.2324 7.31153 46.3305 7.31153C46.4539 7.31153 46.5782 7.26668 46.703 7.17657C46.8279 7.08647 46.9611 6.95516 47.1025 6.78274V4.49387C47.1025 4.46813 47.1095 4.44555 47.1238 4.42634C47.1378 4.40694 47.1636 4.39099 47.201 4.37803C47.2383 4.36525 47.2878 4.35564 47.3497 4.34911C47.4116 4.34268 47.4898 4.33931 47.585 4.33931C47.6803 4.33931 47.7589 4.34258 47.8205 4.34911C47.8823 4.35555 47.931 4.36515 47.9673 4.37803C48.0033 4.39099 48.0289 4.40694 48.0444 4.42634C48.0598 4.44555 48.0675 4.46813 48.0675 4.49387V7.93697" fill="white"/>
<path d="M51.468 6.96419C51.468 7.15996 51.4314 7.33228 51.358 7.48146C51.2846 7.63083 51.181 7.75561 51.0473 7.85589C50.9134 7.95637 50.7552 8.03158 50.5726 8.08173C50.3899 8.13187 50.1916 8.15704 49.9782 8.15704C49.8494 8.15704 49.7267 8.14743 49.6095 8.12803C49.4923 8.10881 49.3874 8.08432 49.2949 8.05473C49.2023 8.02505 49.125 7.99489 49.0634 7.96406C49.0016 7.93312 48.9569 7.90412 48.9284 7.87722C48.8999 7.85003 48.8782 7.80767 48.8626 7.74975C48.8472 7.69192 48.8396 7.60643 48.8396 7.49318C48.8396 7.41845 48.8421 7.3587 48.8472 7.31365C48.8525 7.2685 48.8603 7.23248 48.8705 7.20558C48.8806 7.1784 48.8934 7.16044 48.9088 7.1515C48.9243 7.14247 48.9437 7.13796 48.9668 7.13796C48.9951 7.13796 49.0368 7.1541 49.0924 7.18608C49.1477 7.21836 49.2165 7.2538 49.2987 7.29223C49.3812 7.33094 49.4769 7.36696 49.5863 7.40029C49.6957 7.43382 49.8198 7.45043 49.9587 7.45043C50.0464 7.45043 50.1242 7.44141 50.1923 7.42344C50.2607 7.40538 50.3198 7.37974 50.3701 7.34631C50.4202 7.31298 50.4582 7.27042 50.484 7.21894C50.5099 7.16745 50.5226 7.10828 50.5226 7.04123C50.5226 6.964 50.4987 6.89772 50.4512 6.84248C50.4035 6.78725 50.3404 6.73893 50.262 6.69792C50.1836 6.6568 50.0947 6.61809 49.9958 6.58207C49.8968 6.54605 49.7951 6.50619 49.6907 6.46229C49.5865 6.41858 49.4847 6.36844 49.3858 6.31186C49.2867 6.25538 49.1978 6.18583 49.1194 6.10342C49.0411 6.02109 48.9779 5.92187 48.9304 5.80621C48.8827 5.69037 48.8589 5.55137 48.8589 5.38923C48.8589 5.22468 48.891 5.07339 48.9554 4.93574C49.0198 4.79799 49.1126 4.68051 49.2334 4.58263C49.3544 4.48475 49.5018 4.40886 49.6755 4.35478C49.8495 4.3008 50.0442 4.27371 50.2604 4.27371C50.3685 4.27371 50.4733 4.28149 50.5749 4.29705C50.6765 4.31242 50.7685 4.33163 50.8508 4.35478C50.9332 4.37793 51.0027 4.4031 51.0592 4.42999C51.1159 4.45718 51.1564 4.48033 51.1809 4.49954C51.2053 4.51894 51.2228 4.53806 51.2331 4.55746C51.2434 4.57677 51.2512 4.59982 51.2561 4.62691C51.2614 4.6539 51.2659 4.68743 51.2697 4.72739C51.2736 4.76725 51.2756 4.81682 51.2756 4.87599C51.2756 4.94544 51.2736 5.00202 51.2697 5.04601C51.2659 5.08972 51.2595 5.1242 51.2506 5.15004C51.2415 5.17598 51.2292 5.19317 51.2138 5.20211C51.1984 5.21133 51.1803 5.21575 51.1598 5.21575C51.1367 5.21575 51.1006 5.20211 51.0517 5.17521C51.0028 5.14803 50.9417 5.11911 50.8684 5.08828C50.795 5.05754 50.7102 5.02843 50.6138 5.00144C50.5171 4.97435 50.4071 4.961 50.2836 4.961C50.1961 4.961 50.1202 4.96993 50.0559 4.9879C49.9916 5.00605 49.9389 5.0318 49.8976 5.06513C49.8564 5.09875 49.8258 5.13784 49.8051 5.18299C49.7844 5.22795 49.7742 5.27626 49.7742 5.32756C49.7742 5.40748 49.7988 5.47433 49.8477 5.52832C49.8965 5.5823 49.961 5.63014 50.0407 5.67116C50.1204 5.71227 50.211 5.75098 50.3129 5.787C50.4146 5.82302 50.5174 5.86222 50.6218 5.90458C50.7259 5.94713 50.8287 5.9967 50.9306 6.05318C51.0322 6.10995 51.1229 6.1793 51.2028 6.26172C51.2825 6.34404 51.3468 6.4424 51.3955 6.557C51.4436 6.6716 51.468 6.80723 51.468 6.96419Z" fill="white"/>
<path d="M55.3783 6.11504C55.3783 6.23348 55.3522 6.32108 55.2991 6.37747C55.2464 6.43424 55.1738 6.46238 55.0812 6.46238H52.9851C52.9851 6.60897 53.0027 6.7423 53.0372 6.86179C53.0719 6.98158 53.1273 7.08321 53.2033 7.16678C53.2791 7.25044 53.3769 7.31422 53.4966 7.35783C53.6162 7.40173 53.7598 7.42354 53.927 7.42354C54.0969 7.42354 54.2459 7.41153 54.3748 7.38694C54.5034 7.36254 54.6146 7.33545 54.7088 7.30587C54.8027 7.27619 54.8805 7.24939 54.9423 7.22479C55.0042 7.2004 55.0542 7.1882 55.0928 7.1882C55.1159 7.1882 55.1352 7.19262 55.1507 7.20174C55.1661 7.21077 55.1792 7.22672 55.1893 7.24996C55.1995 7.27311 55.2066 7.30596 55.2106 7.34833C55.2144 7.39088 55.2164 7.44438 55.2164 7.50855C55.2164 7.56522 55.2153 7.61354 55.2125 7.65331C55.21 7.69317 55.2062 7.72737 55.2011 7.75561C55.1959 7.78385 55.1881 7.80767 55.1779 7.82689C55.1677 7.84629 55.1541 7.86492 55.1374 7.88298C55.1206 7.90104 55.0751 7.92554 55.0002 7.95637C54.9257 7.98711 54.8304 8.01737 54.7145 8.04695C54.5988 8.07654 54.4663 8.10228 54.3168 8.12428C54.1676 8.14618 54.008 8.15704 53.8383 8.15704C53.5322 8.15704 53.2638 8.11842 53.0335 8.04119C52.8033 7.96406 52.611 7.84706 52.4564 7.68991C52.3022 7.53295 52.1868 7.33478 52.1109 7.0954C52.035 6.85612 51.997 6.57564 51.997 6.25403C51.997 5.9478 52.0368 5.67173 52.1166 5.42592C52.1964 5.1803 52.312 4.97186 52.4638 4.80049C52.6158 4.62951 52.8003 4.49896 53.018 4.40886C53.2354 4.31885 53.4803 4.27371 53.7533 4.27371C54.0414 4.27371 54.2876 4.31607 54.4923 4.40108C54.6969 4.486 54.865 4.60376 54.996 4.75428C55.1273 4.9049 55.2238 5.08309 55.2856 5.28894C55.3475 5.49489 55.3782 5.7187 55.3782 5.96058V6.11504H55.3783ZM54.4364 5.83705C54.4442 5.56434 54.3895 5.35023 54.2725 5.19442C54.1553 5.03871 53.9746 4.961 53.7301 4.961C53.6067 4.961 53.4994 4.98415 53.408 5.03045C53.3167 5.07665 53.2407 5.13909 53.1803 5.21757C53.1198 5.29615 53.0736 5.38875 53.0413 5.49537C53.0091 5.60228 52.9908 5.7163 52.9854 5.83705H54.4364V5.83705Z" fill="white"/>
<path d="M28.56 16.2124C28.56 16.2713 28.5497 16.3239 28.5293 16.3701C28.5088 16.4161 28.4812 16.4545 28.4466 16.4852C28.4121 16.516 28.371 16.5386 28.3237 16.5525C28.2762 16.5665 28.2282 16.5736 28.1796 16.5736H27.7493C27.6595 16.5736 27.5821 16.5647 27.5168 16.5468C27.4515 16.5288 27.3913 16.4963 27.3362 16.4487C27.2811 16.4014 27.228 16.3374 27.1768 16.2566C27.1255 16.1759 27.0679 16.0715 27.0039 15.9434L25.7666 13.6189C25.6949 13.4807 25.6219 13.3315 25.5476 13.1713C25.4734 13.0112 25.4067 12.8557 25.3478 12.7045H25.3401C25.3503 12.8889 25.3581 13.0728 25.3632 13.2559C25.3683 13.4389 25.3709 13.6279 25.3709 13.8224V16.4237C25.3709 16.4494 25.3638 16.4725 25.3497 16.4929C25.3357 16.5136 25.3113 16.5309 25.2767 16.5448C25.2421 16.5587 25.1954 16.5699 25.1365 16.5776C25.0775 16.5852 25.002 16.589 24.9098 16.589C24.8201 16.589 24.7458 16.5852 24.6869 16.5776C24.628 16.5699 24.5818 16.559 24.5486 16.5448C24.5153 16.5308 24.4922 16.5136 24.4794 16.4929C24.4666 16.4725 24.4602 16.4494 24.4602 16.4237V11.9551C24.4602 11.8346 24.4954 11.7444 24.5659 11.6842C24.6363 11.624 24.7228 11.594 24.8253 11.594H25.367C25.4643 11.594 25.5463 11.6022 25.6129 11.619C25.6795 11.6357 25.7391 11.6632 25.7916 11.7015C25.844 11.7399 25.8934 11.7931 25.9395 11.8609C25.9856 11.9288 26.033 12.0127 26.0817 12.1126L27.05 13.93C27.1063 14.0402 27.1621 14.1484 27.2171 14.2547C27.2721 14.361 27.3253 14.4674 27.3766 14.5736C27.4278 14.6799 27.4777 14.7843 27.5264 14.8867C27.575 14.9891 27.6225 15.0917 27.6686 15.194H27.6724C27.6647 15.0149 27.659 14.828 27.6551 14.6331C27.6513 14.4385 27.6494 14.2528 27.6494 14.076V11.7436C27.6494 11.7181 27.657 11.695 27.6724 11.6746C27.6878 11.6539 27.7133 11.6362 27.7493 11.6206C27.7851 11.6052 27.8325 11.5945 27.8914 11.5878C27.9503 11.5816 28.0259 11.5782 28.1181 11.5782C28.2052 11.5782 28.2782 11.5814 28.3371 11.5878C28.396 11.5944 28.4415 11.6052 28.4735 11.6206C28.5055 11.6359 28.5279 11.6539 28.5408 11.6746C28.5536 11.695 28.56 11.7181 28.56 11.7436V16.2124V16.2124Z" fill="white"/>
<path d="M32.752 14.6216C32.752 14.7395 32.7257 14.8266 32.6732 14.8829C32.6206 14.9393 32.5482 14.9675 32.4561 14.9675H30.3696C30.3696 15.1136 30.3869 15.246 30.4216 15.3652C30.456 15.4843 30.5111 15.5857 30.5867 15.6688C30.6623 15.7519 30.7597 15.8153 30.8788 15.8589C30.9979 15.9025 31.1408 15.9243 31.3072 15.9243C31.4762 15.9243 31.6248 15.9121 31.753 15.8878C31.8811 15.8634 31.9918 15.8367 32.0854 15.807C32.179 15.7775 32.2563 15.7507 32.318 15.7263C32.3793 15.7019 32.4293 15.6897 32.4677 15.6897C32.4908 15.6897 32.5101 15.6942 32.5255 15.7032C32.5407 15.7123 32.5537 15.7283 32.5638 15.7513C32.574 15.7743 32.5811 15.807 32.585 15.8493C32.5888 15.8914 32.591 15.9448 32.591 16.0088C32.591 16.0651 32.5895 16.1131 32.587 16.1529C32.5844 16.1925 32.5807 16.2265 32.5756 16.2546C32.5703 16.2829 32.5626 16.3066 32.5525 16.3257C32.5424 16.345 32.5287 16.3636 32.5122 16.3814C32.4955 16.3995 32.4501 16.4236 32.3758 16.4544C32.3014 16.4853 32.2067 16.5154 32.0914 16.5447C31.9762 16.5741 31.8441 16.5997 31.6957 16.6216C31.5471 16.6435 31.3882 16.6542 31.2192 16.6542C30.9143 16.6542 30.6473 16.6159 30.418 16.539C30.1888 16.4621 29.9974 16.3456 29.8437 16.1893C29.6899 16.0332 29.5753 15.8358 29.4999 15.5976C29.4243 15.3594 29.3865 15.0801 29.3865 14.76C29.3865 14.4551 29.4262 14.1805 29.5056 13.9359C29.5849 13.6912 29.7002 13.4837 29.8514 13.3134C30.0026 13.1433 30.1863 13.0131 30.4028 12.9233C30.6193 12.8336 30.8632 12.7889 31.1348 12.7889C31.4217 12.7889 31.6669 12.8312 31.8706 12.9156C32.0742 13.0003 32.2412 13.1175 32.372 13.2672C32.5027 13.4172 32.5987 13.5944 32.6601 13.7995C32.7217 14.0044 32.7524 14.2271 32.7524 14.4679V14.6216H32.752V14.6216ZM31.8145 14.3449C31.8222 14.0734 31.7677 13.8603 31.6511 13.7051C31.5346 13.5503 31.3547 13.4727 31.1114 13.4727C30.9883 13.4727 30.8813 13.4957 30.7906 13.5419C30.6996 13.588 30.624 13.6502 30.5638 13.7282C30.5035 13.8063 30.4577 13.8985 30.4256 14.0049C30.3935 14.1114 30.375 14.2246 30.3699 14.3449H31.8145Z" fill="white"/>
<path d="M35.5223 16.0973C35.5223 16.21 35.5152 16.2963 35.5011 16.3565C35.487 16.4168 35.4685 16.4589 35.4454 16.4832C35.4224 16.5076 35.3884 16.5292 35.3435 16.5486C35.2985 16.5678 35.246 16.5845 35.1859 16.5986C35.1256 16.6126 35.0603 16.6237 34.9899 16.6314C34.9196 16.6389 34.8483 16.6429 34.7767 16.6429C34.5845 16.6429 34.418 16.6185 34.2772 16.5699C34.1362 16.5213 34.0197 16.4462 33.9274 16.3451C33.8352 16.2438 33.7674 16.1164 33.7239 15.9628C33.6803 15.8091 33.6585 15.6273 33.6585 15.4172V13.6612H33.2474C33.1986 13.6612 33.1614 13.6312 33.136 13.571C33.1103 13.5107 33.0976 13.4102 33.0976 13.2692C33.0976 13.1951 33.1007 13.1322 33.1073 13.081C33.1135 13.0298 33.1233 12.9894 33.1362 12.9599C33.149 12.9303 33.165 12.9094 33.1842 12.8965C33.2033 12.8838 33.2259 12.8773 33.2514 12.8773H33.6586V12.1127C33.6586 12.0872 33.6656 12.0641 33.6799 12.0434C33.6939 12.023 33.7195 12.0056 33.7567 11.9917C33.7938 11.9776 33.8437 11.9673 33.9066 11.9609C33.9694 11.9546 34.0469 11.9513 34.1391 11.9513C34.2337 11.9513 34.3127 11.9545 34.3754 11.9609C34.4381 11.9673 34.4875 11.9776 34.5234 11.9917C34.5592 12.0057 34.5849 12.023 34.6003 12.0434C34.6156 12.0641 34.6233 12.0872 34.6233 12.1127V12.8773H35.3688C35.3943 12.8773 35.4168 12.8838 35.4359 12.8965C35.455 12.9094 35.471 12.9305 35.4839 12.9599C35.4968 12.9893 35.5062 13.0298 35.5129 13.081C35.519 13.1322 35.5225 13.1951 35.5225 13.2692C35.5225 13.4102 35.5096 13.5107 35.4841 13.571C35.4584 13.6311 35.4214 13.6612 35.3728 13.6612H34.6235V15.2712C34.6235 15.4581 34.6529 15.5984 34.7118 15.692C34.7706 15.7856 34.8758 15.8322 35.0268 15.8322C35.078 15.8322 35.1243 15.8277 35.1651 15.8187C35.2059 15.8097 35.2425 15.7995 35.2746 15.7881C35.3066 15.7765 35.3335 15.7662 35.3554 15.7574C35.3772 15.7484 35.3971 15.7439 35.4149 15.7439C35.4302 15.7439 35.4449 15.7484 35.4591 15.7574C35.4732 15.7664 35.4841 15.7842 35.4918 15.8112C35.4995 15.8382 35.5064 15.8745 35.513 15.9209C35.519 15.9664 35.5223 16.0256 35.5223 16.0973Z" fill="white"/>
<path d="M41.4663 13.0001C41.4663 13.0284 41.4625 13.0629 41.4548 13.1038C41.4472 13.1449 41.4329 13.2038 41.4126 13.2806L40.4981 16.3814C40.4852 16.4249 40.4685 16.4601 40.448 16.4871C40.4275 16.5139 40.3961 16.5351 40.354 16.5505C40.3118 16.5658 40.2516 16.5761 40.1734 16.5812C40.0953 16.5863 39.9934 16.5889 39.8678 16.5889C39.7423 16.5889 39.6398 16.5855 39.5604 16.5791C39.4811 16.5727 39.4188 16.5618 39.3743 16.5464C39.3293 16.5311 39.2967 16.5098 39.2762 16.483C39.2557 16.4562 39.2404 16.4222 39.2302 16.3811L38.6538 14.2985L38.6462 14.2641L38.6385 14.2985L38.1081 16.3811C38.0981 16.4248 38.0832 16.4599 38.064 16.4869C38.0448 16.5138 38.0121 16.5349 37.966 16.5502C37.9199 16.5656 37.857 16.5759 37.7777 16.5809C37.6983 16.586 37.5957 16.5886 37.4703 16.5886C37.3422 16.5886 37.2391 16.5854 37.161 16.5789C37.0828 16.5727 37.0213 16.5615 36.9766 16.5461C36.9316 16.5309 36.8989 16.5097 36.8785 16.4828C36.8579 16.456 36.8426 16.4219 36.8325 16.381L35.9256 13.2804C35.9026 13.2062 35.8878 13.1479 35.8814 13.1056C35.8751 13.0636 35.8718 13.0282 35.8718 12.9999C35.8718 12.9742 35.8786 12.9519 35.893 12.9327C35.907 12.9135 35.9326 12.8983 35.9698 12.8867C36.007 12.8751 36.0568 12.8668 36.1198 12.8616C36.1824 12.8565 36.2613 12.8539 36.3561 12.8539C36.4583 12.8539 36.5418 12.8565 36.6059 12.8616C36.6699 12.8668 36.7199 12.8756 36.7557 12.8884C36.7917 12.9013 36.8167 12.9185 36.8307 12.9403C36.8447 12.9621 36.8556 12.9884 36.8633 13.0191L37.5434 15.5357L37.5511 15.5817L37.5588 15.5357L38.1967 13.0191C38.2043 12.9884 38.2165 12.9619 38.2332 12.9403C38.2499 12.9185 38.2749 12.9013 38.308 12.8884C38.3415 12.8756 38.3881 12.8666 38.4483 12.8616C38.5085 12.8566 38.5861 12.8539 38.6807 12.8539C38.7755 12.8539 38.8524 12.8571 38.9113 12.8637C38.9702 12.87 39.017 12.879 39.0515 12.8905C39.0861 12.9019 39.1104 12.9173 39.1245 12.9365C39.1386 12.9558 39.1496 12.9783 39.1573 13.0038L39.8411 15.5397L39.8526 15.5817L39.8603 15.5357L40.5136 13.0191C40.5187 12.9884 40.5289 12.9619 40.5443 12.9403C40.5596 12.9185 40.5853 12.9013 40.6211 12.8884C40.6569 12.8756 40.7057 12.8666 40.7672 12.8616C40.8287 12.8565 40.9067 12.8539 41.0014 12.8539C41.0961 12.8539 41.1737 12.8565 41.234 12.8616C41.2941 12.8668 41.3414 12.8751 41.376 12.8867C41.4105 12.8982 41.4341 12.9134 41.447 12.9327C41.4599 12.952 41.4663 12.9746 41.4663 13.0001Z" fill="white"/>
<path d="M45.4854 14.6869C45.4854 14.979 45.447 15.2454 45.3701 15.4861C45.2933 15.727 45.1765 15.9344 45.0204 16.1086C44.8641 16.2827 44.6681 16.4172 44.4325 16.5119C44.1969 16.6065 43.9216 16.654 43.6064 16.654C43.3015 16.654 43.0363 16.6119 42.811 16.5273C42.5856 16.4428 42.3986 16.3199 42.2501 16.1584C42.1015 15.997 41.9913 15.7985 41.9197 15.5629C41.848 15.3273 41.8121 15.0583 41.8121 14.7562C41.8121 14.4641 41.8511 14.1971 41.9293 13.955C42.0075 13.7128 42.1246 13.5053 42.2809 13.3326C42.4372 13.1599 42.6325 13.0259 42.8669 12.9311C43.1012 12.8364 43.3761 12.7889 43.6911 12.7889C43.9984 12.7889 44.2649 12.8306 44.4902 12.9138C44.7157 12.9971 44.902 13.1196 45.0492 13.2807C45.1964 13.442 45.306 13.6407 45.3778 13.8763C45.4494 14.1121 45.4854 14.3822 45.4854 14.6869ZM44.4902 14.7254C44.4902 14.5563 44.4768 14.4006 44.4499 14.2585C44.4231 14.1165 44.3774 13.9927 44.3135 13.8879C44.2494 13.7828 44.1641 13.7009 44.058 13.6418C43.9517 13.583 43.8178 13.5535 43.6563 13.5535C43.5129 13.5535 43.3874 13.5798 43.2798 13.6321C43.1723 13.6847 43.0839 13.7616 43.0147 13.8627C42.9454 13.964 42.8935 14.0853 42.8591 14.2278C42.8246 14.3699 42.8072 14.5319 42.8072 14.7137C42.8072 14.8829 42.8212 15.0385 42.8494 15.1807C42.8776 15.3228 42.923 15.4465 42.9858 15.5514C43.0485 15.6565 43.1337 15.7376 43.2413 15.7953C43.3489 15.8531 43.4821 15.8817 43.6409 15.8817C43.787 15.8817 43.9137 15.8555 44.0213 15.8029C44.1288 15.7504 44.2172 15.6742 44.2864 15.5742C44.3556 15.4744 44.4068 15.3534 44.4402 15.2113C44.4735 15.0693 44.4902 14.9073 44.4902 14.7254Z" fill="white"/>
<path d="M48.4517 13.327C48.4517 13.4191 48.4492 13.4946 48.4441 13.5535C48.4388 13.6124 48.4311 13.6586 48.421 13.6918C48.4109 13.725 48.3974 13.7481 48.3807 13.7609C48.3639 13.7738 48.3427 13.7802 48.3174 13.7802C48.2968 13.7802 48.2738 13.7756 48.2481 13.7666C48.2224 13.7576 48.1937 13.7481 48.1617 13.7377C48.1297 13.7276 48.0945 13.7179 48.056 13.7088C48.0177 13.7 47.9753 13.6954 47.9293 13.6954C47.8754 13.6954 47.8217 13.7062 47.7678 13.7281C47.7139 13.7499 47.6582 13.7838 47.6007 13.8299C47.5431 13.876 47.4828 13.9375 47.4201 14.0144C47.3574 14.0914 47.29 14.186 47.2184 14.2987V16.435C47.2184 16.4608 47.2107 16.483 47.1953 16.5022C47.18 16.5215 47.1535 16.5374 47.1167 16.5502C47.0794 16.5632 47.0303 16.5726 46.9687 16.5791C46.9072 16.5854 46.8291 16.5889 46.7344 16.5889C46.6396 16.5889 46.5614 16.5855 46.5001 16.5791C46.4387 16.5727 46.3893 16.5632 46.3521 16.5502C46.315 16.5374 46.2888 16.5215 46.2735 16.5022C46.2582 16.483 46.2505 16.4607 46.2505 16.435V13.0077C46.2505 12.9819 46.2568 12.9596 46.2696 12.9403C46.2825 12.9212 46.3055 12.9053 46.3389 12.8923C46.3722 12.8795 46.4151 12.87 46.4676 12.8636C46.5201 12.8571 46.5859 12.8538 46.6656 12.8538C46.7476 12.8538 46.8155 12.857 46.8692 12.8636C46.9231 12.8698 46.9646 12.8795 46.9941 12.8923C47.0236 12.9053 47.0446 12.9212 47.0575 12.9403C47.0703 12.9596 47.0766 12.9821 47.0766 13.0077V13.434C47.1663 13.3059 47.2507 13.2003 47.3303 13.117C47.4096 13.0338 47.4852 12.9678 47.5569 12.919C47.6286 12.8704 47.7003 12.8365 47.772 12.8171C47.8437 12.798 47.9155 12.7882 47.9872 12.7882C48.0205 12.7882 48.0564 12.7902 48.0947 12.7941C48.133 12.7981 48.1728 12.8043 48.2138 12.8132C48.2547 12.8224 48.2907 12.8325 48.3214 12.8439C48.352 12.8555 48.3745 12.8677 48.3885 12.8805C48.4026 12.8934 48.4129 12.9073 48.4192 12.9227C48.4255 12.938 48.4314 12.9593 48.4366 12.9861C48.4418 13.0129 48.4456 13.0532 48.4481 13.1071C48.4504 13.1615 48.4517 13.2346 48.4517 13.327Z" fill="white"/>
<path d="M52.2326 16.439C52.2326 16.4648 52.2256 16.4871 52.2114 16.5062C52.1974 16.5255 52.1717 16.5409 52.1345 16.5523C52.0972 16.5638 52.0468 16.5728 51.9828 16.5791C51.9188 16.5854 51.8355 16.5889 51.7329 16.5889C51.6278 16.5889 51.5428 16.5863 51.4775 16.5812C51.412 16.5759 51.3584 16.5676 51.316 16.5561C51.2738 16.5446 51.2412 16.5286 51.2179 16.5081C51.195 16.4876 51.1744 16.4608 51.1564 16.4273L50.0152 14.6213V16.435C50.0152 16.4608 50.0075 16.483 49.9922 16.5022C49.9769 16.5215 49.9504 16.5374 49.9135 16.5502C49.8763 16.5632 49.8271 16.5726 49.7656 16.5791C49.704 16.5854 49.626 16.5889 49.5312 16.5889C49.4365 16.5889 49.3583 16.5855 49.297 16.5791C49.2356 16.5727 49.1862 16.5632 49.149 16.5502C49.1118 16.5374 49.0857 16.5215 49.0704 16.5022C49.055 16.483 49.0474 16.4606 49.0474 16.435V11.3824C49.0474 11.3566 49.055 11.3336 49.0704 11.313C49.0857 11.2926 49.112 11.2752 49.149 11.2612C49.1862 11.2471 49.2355 11.2362 49.297 11.2285C49.3585 11.2208 49.4365 11.217 49.5312 11.217C49.626 11.217 49.7042 11.2208 49.7656 11.2285C49.827 11.2362 49.8763 11.247 49.9135 11.2612C49.9506 11.2752 49.9769 11.2926 49.9922 11.313C50.0075 11.3336 50.0152 11.3566 50.0152 11.3824V14.3908L51.0296 13.0268C51.0502 12.996 51.0732 12.9691 51.0989 12.9461C51.1245 12.923 51.1585 12.9051 51.2008 12.8922C51.243 12.8794 51.2954 12.8698 51.3584 12.8633C51.4211 12.8571 51.5011 12.8536 51.5986 12.8536C51.6932 12.8536 51.7733 12.8569 51.8387 12.8633C51.9041 12.8696 51.9565 12.8794 51.9963 12.8922C52.0359 12.9051 52.0635 12.921 52.0789 12.9402C52.0942 12.9594 52.1018 12.9832 52.1018 13.0113C52.1018 13.0496 52.0921 13.0907 52.073 13.1342C52.0538 13.1777 52.025 13.2239 51.9867 13.2724L50.9838 14.4097L52.1442 16.2042C52.1749 16.2554 52.1974 16.2996 52.2114 16.3367C52.2255 16.3743 52.2326 16.4084 52.2326 16.439Z" fill="white"/>
<path d="M55.172 15.4669C55.172 15.6616 55.1355 15.8332 55.0624 15.9818C54.9893 16.1304 54.8862 16.2546 54.753 16.3544C54.6197 16.4544 54.4623 16.5292 54.2804 16.5793C54.0984 16.6293 53.9013 16.6542 53.6886 16.6542C53.5606 16.6542 53.4384 16.6445 53.3218 16.6253C53.2052 16.6062 53.1008 16.5818 53.0085 16.5523C52.9163 16.5228 52.8395 16.4928 52.7782 16.4621C52.7165 16.4314 52.6719 16.4024 52.6437 16.3756C52.6155 16.3488 52.5938 16.3064 52.5784 16.249C52.563 16.1912 52.5553 16.1063 52.5553 15.9935C52.5553 15.9193 52.5578 15.8595 52.563 15.8149C52.5681 15.7701 52.5758 15.7341 52.5861 15.7073C52.5962 15.6805 52.609 15.6624 52.6243 15.6534C52.6397 15.6445 52.6589 15.6399 52.6821 15.6399C52.7103 15.6399 52.7519 15.6559 52.807 15.688C52.8621 15.72 52.9305 15.7551 53.0126 15.7937C53.0946 15.8321 53.1901 15.8679 53.2988 15.9012C53.4077 15.9346 53.5313 15.9513 53.6695 15.9513C53.7565 15.9513 53.8342 15.9423 53.902 15.9245C53.9698 15.9066 54.0287 15.881 54.0788 15.8475C54.1288 15.8142 54.1665 15.772 54.1922 15.7208C54.2178 15.6696 54.2306 15.6107 54.2306 15.5441C54.2306 15.4671 54.2069 15.4013 54.1595 15.3461C54.1121 15.2911 54.0494 15.243 53.9712 15.202C53.8931 15.1611 53.8048 15.1227 53.706 15.0867C53.6075 15.0509 53.5063 15.0112 53.4026 14.9677C53.2988 14.9242 53.1976 14.8742 53.099 14.8178C53.0004 14.7615 52.912 14.6922 52.8339 14.6103C52.7557 14.5283 52.6929 14.4296 52.6456 14.3144C52.5982 14.1993 52.5746 14.0607 52.5746 13.8997C52.5746 13.7357 52.6065 13.5853 52.6706 13.4481C52.7346 13.3111 52.8268 13.1939 52.9473 13.0965C53.0676 12.9993 53.2143 12.9237 53.3872 12.8699C53.5601 12.8161 53.7541 12.7892 53.9693 12.7892C54.0769 12.7892 54.1813 12.7969 54.2827 12.8123C54.3838 12.8277 54.4753 12.8468 54.5572 12.8699C54.6392 12.893 54.7083 12.9179 54.7647 12.9447C54.8211 12.9717 54.8614 12.9948 54.8857 13.014C54.9101 13.0332 54.9275 13.0524 54.9376 13.0718C54.9478 13.0911 54.9556 13.1139 54.9606 13.1409C54.9657 13.1679 54.9703 13.2011 54.9742 13.2409C54.9779 13.2807 54.98 13.3299 54.98 13.3887C54.98 13.458 54.978 13.5144 54.9742 13.5579C54.9703 13.6015 54.964 13.636 54.9551 13.6615C54.9459 13.6873 54.9337 13.7045 54.9185 13.7135C54.9032 13.7225 54.885 13.7269 54.8646 13.7269C54.8415 13.7269 54.8057 13.7135 54.757 13.6866C54.7083 13.6599 54.6475 13.6309 54.5746 13.6002C54.5015 13.5695 54.4169 13.5408 54.3209 13.5139C54.2248 13.487 54.1153 13.4735 53.9924 13.4735C53.9053 13.4735 53.8297 13.4826 53.7658 13.5004C53.7017 13.5184 53.6492 13.544 53.6081 13.5772C53.5671 13.6106 53.5364 13.6496 53.5159 13.6945C53.4954 13.7393 53.4852 13.7874 53.4852 13.8386C53.4852 13.918 53.5096 13.9847 53.5584 14.0384C53.607 14.0923 53.6711 14.1396 53.7505 14.1805C53.8297 14.2215 53.9201 14.2599 54.0212 14.2957C54.1224 14.3315 54.2248 14.3705 54.3286 14.413C54.4323 14.4551 54.5347 14.5045 54.636 14.5608C54.7371 14.6173 54.8274 14.6865 54.9067 14.7683C54.9861 14.8503 55.0502 14.9482 55.0989 15.0623C55.1476 15.1756 55.172 15.3107 55.172 15.4669Z" fill="white"/>
</g>
<defs>
<clipPath id="clip0_2_8">
<rect width="58.6864" height="20" fill="white"/>
</clipPath>
</defs>
</svg>
