<svg width="20" height="20" viewBox="0 0 20 20" fill="none" xmlns="http://www.w3.org/2000/svg">
<path d="M14.4148 15.617C13.7851 16.2618 13.1592 16.9088 12.5268 17.5491C11.7636 18.3215 10.9881 19.0816 10.2337 19.8628C10.0549 20.0482 9.96846 20.0433 9.78989 19.863C7.33544 17.3871 4.87254 14.9202 2.41173 12.4508C2.01633 12.0542 1.63032 11.6473 1.22191 11.2649C1.0478 11.1019 1.07676 11.0205 1.2391 10.8775C3.01466 9.31107 5.04922 8.25328 7.36221 7.81872C11.6144 7.01952 15.4179 8.02553 18.7415 10.8483C18.9479 11.0234 18.9576 11.1137 18.7563 11.3055C17.2848 12.7085 15.727 13.9802 13.8077 14.7145C11.9762 15.4153 10.1419 15.3849 8.31821 14.6937C7.58123 14.4145 6.95551 13.9625 6.50609 13.293C5.82417 12.2773 5.9211 11.0197 6.76089 10.1296C7.50927 9.33653 8.46792 8.97593 9.51524 8.83386C10.2886 8.72906 11.0571 8.77036 11.8015 9.03539C12.2368 9.19042 12.6231 9.42471 12.9182 9.79299C13.4677 10.4794 13.3982 11.3847 12.7183 11.9403C11.8899 12.6172 10.9366 12.8148 9.89982 12.5807C9.56043 12.5039 9.26993 12.334 9.03687 12.0624C8.81795 11.8074 8.53105 11.7699 8.31906 11.9476C8.09359 12.1367 8.09017 12.4363 8.32077 12.7082C8.74114 13.2032 9.29974 13.4462 9.9172 13.5522C11.1762 13.7685 12.3685 13.5772 13.4277 12.8308C14.8382 11.8368 14.8663 10.1624 13.5017 9.10071C12.6167 8.41236 11.5771 8.20381 10.4902 8.18422C8.99794 8.15732 7.60202 8.49669 6.38305 9.39944C4.40907 10.8611 4.37964 13.2982 6.30597 14.8258C7.28085 15.5993 8.41419 15.9699 9.6247 16.1394C11.2079 16.3609 12.7488 16.186 14.2498 15.6359C14.3014 15.6172 14.3498 15.5783 14.4148 15.617Z" fill="#05539D"/>
<path d="M0.382299 10.3806C0.224042 10.3081 0.120468 10.1816 0.0282863 10.058C-0.0609526 9.93804 0.0835384 9.8782 0.14762 9.81374C2.89542 7.05218 5.64511 4.29215 8.39605 1.53356C8.8637 1.06442 9.35062 0.613905 9.80232 0.12987C9.99636 -0.078095 10.088 -0.0105663 10.2497 0.15302C12.0888 2.01424 13.9334 3.86998 15.7795 5.72408C17.1257 7.0759 18.477 8.42254 19.8237 9.77398C19.925 9.87541 20.1149 9.96369 19.9058 10.1509C19.7561 10.2852 19.6711 10.4509 19.4166 10.2486C17.3759 8.62714 15.0594 7.61335 12.5046 7.19694C9.49872 6.70704 6.5845 7.07466 3.78619 8.30957C2.63587 8.81714 1.56889 9.4663 0.57777 10.2444C0.515967 10.293 0.448848 10.3345 0.382299 10.3806Z" fill="#6BB8D4"/>
</svg>
